<mxfile host="app.diagrams.net" agent="Mozilla/5.0 (Windows NT 10.0; Win64; x64) AppleWebKit/537.36 (KHTML, like Gecko) Chrome/135.0.0.0 Safari/537.36" version="26.2.13">
  <diagram name="Page-1" id="1bRoEC9xy2Tuq4sJHTIV">
    <mxGraphModel dx="1188" dy="507" grid="0" gridSize="10" guides="1" tooltips="1" connect="1" arrows="1" fold="1" page="1" pageScale="1" pageWidth="850" pageHeight="1100" math="0" shadow="0">
      <root>
        <mxCell id="0" />
        <mxCell id="1" parent="0" />
        <mxCell id="7NiApTt3flxIyvFXq6Fw-123" value="" style="group" parent="1" vertex="1" connectable="0">
          <mxGeometry x="93" y="66.58" width="564" height="573.5" as="geometry" />
        </mxCell>
        <mxCell id="7NiApTt3flxIyvFXq6Fw-111" value="&lt;font style=&quot;font-size: 12px;&quot;&gt;Records&lt;/font&gt;" style="rhombus;whiteSpace=wrap;html=1;fontFamily=Times New Roman;container=0;" parent="7NiApTt3flxIyvFXq6Fw-123" vertex="1">
          <mxGeometry x="219.3872633390706" y="94.33311643835616" width="128.28330464716007" height="91.58537671232877" as="geometry" />
        </mxCell>
        <mxCell id="7NiApTt3flxIyvFXq6Fw-88" value="" style="endArrow=none;html=1;rounded=0;exitX=0.5;exitY=0;exitDx=0;exitDy=0;" parent="7NiApTt3flxIyvFXq6Fw-123" edge="1">
          <mxGeometry width="50" height="50" relative="1" as="geometry">
            <mxPoint x="135.3614561101549" y="364.7" as="sourcePoint" />
            <mxPoint x="135.3614561101549" y="270.92" as="targetPoint" />
          </mxGeometry>
        </mxCell>
        <mxCell id="7NiApTt3flxIyvFXq6Fw-121" value="&lt;b&gt;N&lt;/b&gt;" style="text;html=1;align=center;verticalAlign=middle;resizable=0;points=[];autosize=1;strokeColor=none;fillColor=none;container=0;" parent="7NiApTt3flxIyvFXq6Fw-123" vertex="1">
          <mxGeometry x="364.3574881036752" y="313.85599999999994" width="30" height="30" as="geometry" />
        </mxCell>
        <mxCell id="7NiApTt3flxIyvFXq6Fw-33" value="&lt;font face=&quot;Times New Roman&quot;&gt;&lt;b&gt;Attendance&lt;/b&gt;&lt;/font&gt;" style="rounded=0;whiteSpace=wrap;html=1;container=0;" parent="7NiApTt3flxIyvFXq6Fw-123" vertex="1">
          <mxGeometry x="396.42598967297766" y="125.04000000000002" width="67.83760251088387" height="31.260000000000005" as="geometry" />
        </mxCell>
        <mxCell id="7NiApTt3flxIyvFXq6Fw-34" value="&lt;font face=&quot;Times New Roman&quot;&gt;&lt;u&gt;aid&lt;/u&gt;&lt;/font&gt;" style="ellipse;whiteSpace=wrap;html=1;container=0;" parent="7NiApTt3flxIyvFXq6Fw-123" vertex="1">
          <mxGeometry x="401.0515662650603" y="30.128609246575333" width="58.59387263339071" height="28.223033904109588" as="geometry" />
        </mxCell>
        <mxCell id="7NiApTt3flxIyvFXq6Fw-35" value="&lt;font face=&quot;Times New Roman&quot;&gt;status&lt;/font&gt;" style="ellipse;whiteSpace=wrap;html=1;container=0;" parent="7NiApTt3flxIyvFXq6Fw-123" vertex="1">
          <mxGeometry x="485.4671256454389" y="93.77518253424657" width="64.94251290877799" height="28.980981849315068" as="geometry" />
        </mxCell>
        <mxCell id="7NiApTt3flxIyvFXq6Fw-36" value="&lt;font face=&quot;Times New Roman&quot;&gt;teacher_id&lt;/font&gt;" style="ellipse;whiteSpace=wrap;html=1;container=0;" parent="7NiApTt3flxIyvFXq6Fw-123" vertex="1">
          <mxGeometry x="341.30793763288455" y="62.519999999999996" width="84.79700313860484" height="31.260000000000005" as="geometry" />
        </mxCell>
        <mxCell id="7NiApTt3flxIyvFXq6Fw-37" value="&lt;font face=&quot;Times New Roman&quot;&gt;student_id&lt;/font&gt;" style="ellipse;whiteSpace=wrap;html=1;container=0;" parent="7NiApTt3flxIyvFXq6Fw-123" vertex="1">
          <mxGeometry x="434.5846410853499" y="62.519999999999996" width="84.79700313860484" height="31.260000000000005" as="geometry" />
        </mxCell>
        <mxCell id="7NiApTt3flxIyvFXq6Fw-42" value="" style="endArrow=none;html=1;rounded=0;entryX=0;entryY=0.5;entryDx=0;entryDy=0;exitX=1;exitY=0.5;exitDx=0;exitDy=0;" parent="7NiApTt3flxIyvFXq6Fw-123" source="7NiApTt3flxIyvFXq6Fw-33" target="7NiApTt3flxIyvFXq6Fw-35" edge="1">
          <mxGeometry width="50" height="50" relative="1" as="geometry">
            <mxPoint x="472.74329249772205" y="145.88" as="sourcePoint" />
            <mxPoint x="472.74329249772205" y="125.04000000000002" as="targetPoint" />
          </mxGeometry>
        </mxCell>
        <mxCell id="7NiApTt3flxIyvFXq6Fw-44" value="" style="endArrow=none;html=1;rounded=0;entryX=0.5;entryY=1;entryDx=0;entryDy=0;" parent="7NiApTt3flxIyvFXq6Fw-123" target="7NiApTt3flxIyvFXq6Fw-34" edge="1">
          <mxGeometry width="50" height="50" relative="1" as="geometry">
            <mxPoint x="430.3447909284197" y="125.04000000000002" as="sourcePoint" />
            <mxPoint x="489.702693125443" y="52.10000000000001" as="targetPoint" />
          </mxGeometry>
        </mxCell>
        <mxCell id="7NiApTt3flxIyvFXq6Fw-45" value="" style="endArrow=none;html=1;rounded=0;entryX=0.5;entryY=1;entryDx=0;entryDy=0;" parent="7NiApTt3flxIyvFXq6Fw-123" target="7NiApTt3flxIyvFXq6Fw-37" edge="1">
          <mxGeometry width="50" height="50" relative="1" as="geometry">
            <mxPoint x="430.3447909284197" y="125.04000000000002" as="sourcePoint" />
            <mxPoint x="447.30419155614055" y="104.20000000000002" as="targetPoint" />
          </mxGeometry>
        </mxCell>
        <mxCell id="7NiApTt3flxIyvFXq6Fw-46" value="" style="endArrow=none;html=1;rounded=0;entryX=1;entryY=0.5;entryDx=0;entryDy=0;exitX=0.04;exitY=0.309;exitDx=0;exitDy=0;exitPerimeter=0;" parent="7NiApTt3flxIyvFXq6Fw-123" source="7NiApTt3flxIyvFXq6Fw-51" target="7NiApTt3flxIyvFXq6Fw-33" edge="1">
          <mxGeometry width="50" height="50" relative="1" as="geometry">
            <mxPoint x="504.8813566872533" y="177.14000000000001" as="sourcePoint" />
            <mxPoint x="464.2635921838614" y="145.69244000000003" as="targetPoint" />
          </mxGeometry>
        </mxCell>
        <mxCell id="7NiApTt3flxIyvFXq6Fw-50" value="&lt;font face=&quot;Times New Roman&quot;&gt;date&lt;/font&gt;" style="ellipse;whiteSpace=wrap;html=1;container=0;" parent="7NiApTt3flxIyvFXq6Fw-123" vertex="1">
          <mxGeometry x="488.8671256454389" y="127.02231952054794" width="68.82547332185888" height="27.296653082191774" as="geometry" />
        </mxCell>
        <mxCell id="7NiApTt3flxIyvFXq6Fw-51" value="&lt;font face=&quot;Times New Roman&quot;&gt;market_at&lt;/font&gt;" style="ellipse;whiteSpace=wrap;html=1;container=0;" parent="7NiApTt3flxIyvFXq6Fw-123" vertex="1">
          <mxGeometry x="488.3771256454389" y="159.99892945205482" width="75.62065404475045" height="29.833673287671232" as="geometry" />
        </mxCell>
        <mxCell id="7NiApTt3flxIyvFXq6Fw-52" value="" style="endArrow=none;html=1;rounded=0;entryX=0;entryY=0.5;entryDx=0;entryDy=0;exitX=1;exitY=0.5;exitDx=0;exitDy=0;" parent="7NiApTt3flxIyvFXq6Fw-123" source="7NiApTt3flxIyvFXq6Fw-33" target="7NiApTt3flxIyvFXq6Fw-50" edge="1">
          <mxGeometry width="50" height="50" relative="1" as="geometry">
            <mxPoint x="468.5034423407918" y="145.88" as="sourcePoint" />
            <mxPoint x="493.9425432823732" y="114.62000000000002" as="targetPoint" />
          </mxGeometry>
        </mxCell>
        <mxCell id="7NiApTt3flxIyvFXq6Fw-53" value="" style="endArrow=none;html=1;rounded=0;entryX=1;entryY=0.5;entryDx=0;entryDy=0;exitX=0.5;exitY=0;exitDx=0;exitDy=0;" parent="7NiApTt3flxIyvFXq6Fw-123" source="7NiApTt3flxIyvFXq6Fw-33" edge="1">
          <mxGeometry width="50" height="50" relative="1" as="geometry">
            <mxPoint x="434.5846410853499" y="125.04000000000002" as="sourcePoint" />
            <mxPoint x="387.9462893591172" y="93.77999999999999" as="targetPoint" />
          </mxGeometry>
        </mxCell>
        <mxCell id="7NiApTt3flxIyvFXq6Fw-54" value="" style="endArrow=none;html=1;rounded=0;" parent="7NiApTt3flxIyvFXq6Fw-123" edge="1">
          <mxGeometry width="50" height="50" relative="1" as="geometry">
            <mxPoint x="347.5249569707401" y="140.65215753424656" as="sourcePoint" />
            <mxPoint x="396.42598967297766" y="140.8784" as="targetPoint" />
          </mxGeometry>
        </mxCell>
        <mxCell id="7NiApTt3flxIyvFXq6Fw-109" value="&lt;b&gt;N&lt;/b&gt;" style="edgeLabel;html=1;align=center;verticalAlign=middle;resizable=0;points=[];container=0;" parent="7NiApTt3flxIyvFXq6Fw-54" vertex="1" connectable="0">
          <mxGeometry x="0.3845" y="-5" relative="1" as="geometry">
            <mxPoint x="7" y="5" as="offset" />
          </mxGeometry>
        </mxCell>
        <mxCell id="7NiApTt3flxIyvFXq6Fw-73" value="&lt;font face=&quot;Times New Roman&quot;&gt;&lt;b&gt;Attendance&lt;/b&gt;&lt;/font&gt;&lt;div&gt;&lt;font face=&quot;Times New Roman&quot;&gt;&lt;b&gt;Requests&lt;/b&gt;&lt;/font&gt;&lt;/div&gt;" style="rounded=0;whiteSpace=wrap;html=1;container=0;" parent="7NiApTt3flxIyvFXq6Fw-123" vertex="1">
          <mxGeometry x="396.42598967297766" y="312.6" width="67.83760251088387" height="31.26" as="geometry" />
        </mxCell>
        <mxCell id="7NiApTt3flxIyvFXq6Fw-74" value="&lt;font face=&quot;Times New Roman&quot;&gt;teacher_id&lt;/font&gt;" style="ellipse;whiteSpace=wrap;html=1;container=0;" parent="7NiApTt3flxIyvFXq6Fw-123" vertex="1">
          <mxGeometry x="447.3" y="359.49" width="77.7" height="26.51" as="geometry" />
        </mxCell>
        <mxCell id="7NiApTt3flxIyvFXq6Fw-75" value="&lt;font face=&quot;Times New Roman&quot;&gt;&lt;u&gt;ar_id&lt;/u&gt;&lt;/font&gt;" style="ellipse;whiteSpace=wrap;html=1;container=0;" parent="7NiApTt3flxIyvFXq6Fw-123" vertex="1">
          <mxGeometry x="476.9831426546523" y="291.76" width="84.79700313860484" height="31.26" as="geometry" />
        </mxCell>
        <mxCell id="7NiApTt3flxIyvFXq6Fw-76" value="&lt;font face=&quot;Times New Roman&quot;&gt;student_id&lt;/font&gt;" style="ellipse;whiteSpace=wrap;html=1;container=0;" parent="7NiApTt3flxIyvFXq6Fw-123" vertex="1">
          <mxGeometry x="348" y="354.28" width="73.87" height="27.72" as="geometry" />
        </mxCell>
        <mxCell id="7NiApTt3flxIyvFXq6Fw-78" value="" style="endArrow=none;html=1;rounded=0;entryX=0;entryY=0.5;entryDx=0;entryDy=0;exitX=1;exitY=0.5;exitDx=0;exitDy=0;" parent="7NiApTt3flxIyvFXq6Fw-123" source="7NiApTt3flxIyvFXq6Fw-73" target="7NiApTt3flxIyvFXq6Fw-75" edge="1">
          <mxGeometry width="50" height="50" relative="1" as="geometry">
            <mxPoint x="472.74329249772205" y="333.44" as="sourcePoint" />
            <mxPoint x="472.74329249772205" y="312.6" as="targetPoint" />
          </mxGeometry>
        </mxCell>
        <mxCell id="7NiApTt3flxIyvFXq6Fw-79" value="" style="endArrow=none;html=1;rounded=0;exitX=0.565;exitY=1.016;exitDx=0;exitDy=0;exitPerimeter=0;entryX=0.225;entryY=0.083;entryDx=0;entryDy=0;entryPerimeter=0;" parent="7NiApTt3flxIyvFXq6Fw-123" source="7NiApTt3flxIyvFXq6Fw-73" target="7NiApTt3flxIyvFXq6Fw-74" edge="1">
          <mxGeometry width="50" height="50" relative="1" as="geometry">
            <mxPoint x="430.3447909284196" y="312.6" as="sourcePoint" />
            <mxPoint x="396.42598967297766" y="406.38" as="targetPoint" />
          </mxGeometry>
        </mxCell>
        <mxCell id="7NiApTt3flxIyvFXq6Fw-80" value="" style="endArrow=none;html=1;rounded=0;exitX=0.563;exitY=1.011;exitDx=0;exitDy=0;exitPerimeter=0;entryX=0.48;entryY=0.007;entryDx=0;entryDy=0;entryPerimeter=0;" parent="7NiApTt3flxIyvFXq6Fw-123" source="7NiApTt3flxIyvFXq6Fw-73" target="gAiitMivv2aqCOJB7CVN-15" edge="1">
          <mxGeometry width="50" height="50" relative="1" as="geometry">
            <mxPoint x="430.3447909284196" y="312.6" as="sourcePoint" />
            <mxPoint x="435" y="468" as="targetPoint" />
          </mxGeometry>
        </mxCell>
        <mxCell id="7NiApTt3flxIyvFXq6Fw-82" value="&lt;font face=&quot;Times New Roman&quot;&gt;updated_at&lt;/font&gt;" style="ellipse;whiteSpace=wrap;html=1;container=0;" parent="7NiApTt3flxIyvFXq6Fw-123" vertex="1">
          <mxGeometry x="306" y="469" width="85" height="29.68" as="geometry" />
        </mxCell>
        <mxCell id="7NiApTt3flxIyvFXq6Fw-84" value="" style="endArrow=none;html=1;rounded=0;" parent="7NiApTt3flxIyvFXq6Fw-123" edge="1">
          <mxGeometry width="50" height="50" relative="1" as="geometry">
            <mxPoint x="346" y="448" as="sourcePoint" />
            <mxPoint x="346" y="469.42" as="targetPoint" />
          </mxGeometry>
        </mxCell>
        <mxCell id="7NiApTt3flxIyvFXq6Fw-85" value="" style="endArrow=none;html=1;rounded=0;entryX=1;entryY=0;entryDx=0;entryDy=0;exitX=0.558;exitY=1.019;exitDx=0;exitDy=0;exitPerimeter=0;" parent="7NiApTt3flxIyvFXq6Fw-123" source="7NiApTt3flxIyvFXq6Fw-73" target="7NiApTt3flxIyvFXq6Fw-76" edge="1">
          <mxGeometry width="50" height="50" relative="1" as="geometry">
            <mxPoint x="409.1455401437683" y="395.96000000000004" as="sourcePoint" />
            <mxPoint x="366.747038574466" y="364.7" as="targetPoint" />
          </mxGeometry>
        </mxCell>
        <mxCell id="7NiApTt3flxIyvFXq6Fw-86" value="" style="endArrow=none;html=1;rounded=0;exitX=0.779;exitY=0.724;exitDx=0;exitDy=0;exitPerimeter=0;" parent="7NiApTt3flxIyvFXq6Fw-123" source="7NiApTt3flxIyvFXq6Fw-119" edge="1">
          <mxGeometry width="50" height="50" relative="1" as="geometry">
            <mxPoint x="290.4297357497216" y="239.66" as="sourcePoint" />
            <mxPoint x="396.42598967297766" y="328.4384" as="targetPoint" />
          </mxGeometry>
        </mxCell>
        <mxCell id="7NiApTt3flxIyvFXq6Fw-94" value="&lt;font face=&quot;Times New Roman&quot;&gt;status&lt;/font&gt;" style="ellipse;whiteSpace=wrap;html=1;container=0;" parent="7NiApTt3flxIyvFXq6Fw-123" vertex="1">
          <mxGeometry x="485.4671256454389" y="468.89625308219166" width="78.53287435456112" height="29.675767465753424" as="geometry" />
        </mxCell>
        <mxCell id="7NiApTt3flxIyvFXq6Fw-96" value="&lt;font face=&quot;Times New Roman&quot;&gt;date&lt;/font&gt;" style="ellipse;whiteSpace=wrap;html=1;container=0;" parent="7NiApTt3flxIyvFXq6Fw-123" vertex="1">
          <mxGeometry x="354.03" y="406.38" width="74.93" height="31.26" as="geometry" />
        </mxCell>
        <mxCell id="7NiApTt3flxIyvFXq6Fw-97" value="&lt;font face=&quot;Times New Roman&quot;&gt;reason&lt;/font&gt;" style="ellipse;whiteSpace=wrap;html=1;container=0;" parent="7NiApTt3flxIyvFXq6Fw-123" vertex="1">
          <mxGeometry x="447.3041915561405" y="406.38" width="84.79700313860484" height="31.26" as="geometry" />
        </mxCell>
        <mxCell id="7NiApTt3flxIyvFXq6Fw-98" value="" style="endArrow=none;html=1;rounded=0;" parent="7NiApTt3flxIyvFXq6Fw-123" edge="1">
          <mxGeometry width="50" height="50" relative="1" as="geometry">
            <mxPoint x="304" y="396" as="sourcePoint" />
            <mxPoint x="489.702693125443" y="395.96000000000004" as="targetPoint" />
          </mxGeometry>
        </mxCell>
        <mxCell id="7NiApTt3flxIyvFXq6Fw-100" value="" style="endArrow=none;html=1;rounded=0;" parent="7NiApTt3flxIyvFXq6Fw-123" edge="1">
          <mxGeometry width="50" height="50" relative="1" as="geometry">
            <mxPoint x="346" y="448" as="sourcePoint" />
            <mxPoint x="532.1011946947453" y="448.05999999999995" as="targetPoint" />
          </mxGeometry>
        </mxCell>
        <mxCell id="7NiApTt3flxIyvFXq6Fw-102" value="" style="endArrow=none;html=1;rounded=0;exitX=0.5;exitY=0;exitDx=0;exitDy=0;" parent="7NiApTt3flxIyvFXq6Fw-123" edge="1">
          <mxGeometry width="50" height="50" relative="1" as="geometry">
            <mxPoint x="532.3555857041613" y="468.90000000000003" as="sourcePoint" />
            <mxPoint x="532.1011946947453" y="448.05999999999995" as="targetPoint" />
          </mxGeometry>
        </mxCell>
        <mxCell id="7NiApTt3flxIyvFXq6Fw-103" value="" style="endArrow=none;html=1;rounded=0;exitX=0.5;exitY=0;exitDx=0;exitDy=0;" parent="7NiApTt3flxIyvFXq6Fw-123" source="7NiApTt3flxIyvFXq6Fw-96" edge="1">
          <mxGeometry width="50" height="50" relative="1" as="geometry">
            <mxPoint x="379.4920281461982" y="401.17" as="sourcePoint" />
            <mxPoint x="391" y="396" as="targetPoint" />
          </mxGeometry>
        </mxCell>
        <mxCell id="7NiApTt3flxIyvFXq6Fw-104" value="" style="endArrow=none;html=1;rounded=0;exitX=0.5;exitY=0;exitDx=0;exitDy=0;" parent="7NiApTt3flxIyvFXq6Fw-123" edge="1">
          <mxGeometry width="50" height="50" relative="1" as="geometry">
            <mxPoint x="489.7111728257569" y="406.38" as="sourcePoint" />
            <mxPoint x="489.67725402450145" y="395.96000000000004" as="targetPoint" />
          </mxGeometry>
        </mxCell>
        <mxCell id="7NiApTt3flxIyvFXq6Fw-1" value="&lt;font face=&quot;Times New Roman&quot;&gt;&lt;b&gt;Users&lt;/b&gt;&lt;/font&gt;" style="rounded=0;whiteSpace=wrap;html=1;container=0;" parent="7NiApTt3flxIyvFXq6Fw-123" vertex="1">
          <mxGeometry x="101.75640376632583" y="125.04000000000002" width="67.83760251088387" height="31.26" as="geometry" />
        </mxCell>
        <mxCell id="7NiApTt3flxIyvFXq6Fw-6" value="&lt;font face=&quot;Times New Roman&quot;&gt;role&lt;/font&gt;" style="ellipse;whiteSpace=wrap;html=1;container=0;" parent="7NiApTt3flxIyvFXq6Fw-123" vertex="1">
          <mxGeometry x="1.695940062772096" y="2.0840000000000134" width="61.05384225979549" height="27.092000000000002" as="geometry" />
        </mxCell>
        <mxCell id="7NiApTt3flxIyvFXq6Fw-7" value="&lt;font face=&quot;Times New Roman&quot;&gt;semester&lt;/font&gt;" style="ellipse;whiteSpace=wrap;html=1;container=0;" parent="7NiApTt3flxIyvFXq6Fw-123" vertex="1">
          <mxGeometry x="216.23235800344236" width="64.44572238533969" height="27.092000000000002" as="geometry" />
        </mxCell>
        <mxCell id="7NiApTt3flxIyvFXq6Fw-8" value="&lt;font face=&quot;Times New Roman&quot;&gt;email&lt;/font&gt;" style="ellipse;whiteSpace=wrap;html=1;container=0;" parent="7NiApTt3flxIyvFXq6Fw-123" vertex="1">
          <mxGeometry x="68.68557254226992" width="72.07745266781411" height="31.26" as="geometry" />
        </mxCell>
        <mxCell id="7NiApTt3flxIyvFXq6Fw-9" value="&lt;font face=&quot;Times New Roman&quot;&gt;phone&lt;/font&gt;" style="ellipse;whiteSpace=wrap;html=1;container=0;" parent="7NiApTt3flxIyvFXq6Fw-123" vertex="1">
          <mxGeometry x="144.15490533562823" width="67.83760251088387" height="31.26" as="geometry" />
        </mxCell>
        <mxCell id="7NiApTt3flxIyvFXq6Fw-10" value="&lt;font face=&quot;Times New Roman&quot;&gt;&lt;u&gt;Uid&lt;/u&gt;&lt;/font&gt;" style="ellipse;whiteSpace=wrap;html=1;container=0;" parent="7NiApTt3flxIyvFXq6Fw-123" vertex="1">
          <mxGeometry x="21.35514022476461" y="56.435362328767106" width="84.79700313860485" height="31.26" as="geometry" />
        </mxCell>
        <mxCell id="7NiApTt3flxIyvFXq6Fw-11" value="&lt;font face=&quot;Times New Roman&quot;&gt;name&lt;/font&gt;" style="ellipse;whiteSpace=wrap;html=1;container=0;" parent="7NiApTt3flxIyvFXq6Fw-123" vertex="1">
          <mxGeometry x="131.43820998278832" y="58.35164315068492" width="67.56351118760757" height="27.559829452054792" as="geometry" />
        </mxCell>
        <mxCell id="7NiApTt3flxIyvFXq6Fw-12" value="&lt;font face=&quot;Times New Roman&quot;&gt;password&lt;/font&gt;" style="ellipse;whiteSpace=wrap;html=1;container=0;" parent="7NiApTt3flxIyvFXq6Fw-123" vertex="1">
          <mxGeometry y="93.77999999999999" width="84.79700313860485" height="31.26" as="geometry" />
        </mxCell>
        <mxCell id="7NiApTt3flxIyvFXq6Fw-13" value="&lt;font face=&quot;Times New Roman&quot;&gt;created_at&lt;/font&gt;" style="ellipse;whiteSpace=wrap;html=1;container=0;" parent="7NiApTt3flxIyvFXq6Fw-123" vertex="1">
          <mxGeometry y="135.46" width="84.79700313860485" height="31.26" as="geometry" />
        </mxCell>
        <mxCell id="7NiApTt3flxIyvFXq6Fw-16" value="&lt;font face=&quot;Times New Roman&quot;&gt;updated_at&lt;/font&gt;" style="ellipse;whiteSpace=wrap;html=1;container=0;" parent="7NiApTt3flxIyvFXq6Fw-123" vertex="1">
          <mxGeometry y="177.14000000000001" width="84.79700313860485" height="31.26" as="geometry" />
        </mxCell>
        <mxCell id="7NiApTt3flxIyvFXq6Fw-17" value="" style="endArrow=none;html=1;rounded=0;" parent="7NiApTt3flxIyvFXq6Fw-123" edge="1">
          <mxGeometry width="50" height="50" relative="1" as="geometry">
            <mxPoint x="135.33601700921332" y="125.04000000000002" as="sourcePoint" />
            <mxPoint x="122.31325301204821" y="52.22489726027397" as="targetPoint" />
          </mxGeometry>
        </mxCell>
        <mxCell id="7NiApTt3flxIyvFXq6Fw-21" value="" style="endArrow=none;html=1;rounded=0;" parent="7NiApTt3flxIyvFXq6Fw-123" edge="1">
          <mxGeometry width="50" height="50" relative="1" as="geometry">
            <mxPoint x="32.222861192669846" y="52.10000000000001" as="sourcePoint" />
            <mxPoint x="32.07870628733421" y="29.176" as="targetPoint" />
          </mxGeometry>
        </mxCell>
        <mxCell id="7NiApTt3flxIyvFXq6Fw-23" value="" style="endArrow=none;html=1;rounded=0;" parent="7NiApTt3flxIyvFXq6Fw-123" edge="1">
          <mxGeometry width="50" height="50" relative="1" as="geometry">
            <mxPoint x="248.4552191961122" y="52.10000000000001" as="sourcePoint" />
            <mxPoint x="248.31106429077659" y="27.092000000000002" as="targetPoint" />
          </mxGeometry>
        </mxCell>
        <mxCell id="7NiApTt3flxIyvFXq6Fw-24" value="" style="endArrow=none;html=1;rounded=0;" parent="7NiApTt3flxIyvFXq6Fw-123" edge="1">
          <mxGeometry width="50" height="50" relative="1" as="geometry">
            <mxPoint x="178.0737065910702" y="52.10000000000001" as="sourcePoint" />
            <mxPoint x="178.0737065910702" y="31.260000000000012" as="targetPoint" />
          </mxGeometry>
        </mxCell>
        <mxCell id="7NiApTt3flxIyvFXq6Fw-25" value="" style="endArrow=none;html=1;rounded=0;" parent="7NiApTt3flxIyvFXq6Fw-123" edge="1">
          <mxGeometry width="50" height="50" relative="1" as="geometry">
            <mxPoint x="104.58014397084135" y="52.10000000000001" as="sourcePoint" />
            <mxPoint x="104.58014397084135" y="31.260000000000012" as="targetPoint" />
          </mxGeometry>
        </mxCell>
        <mxCell id="7NiApTt3flxIyvFXq6Fw-26" value="" style="endArrow=none;html=1;rounded=0;" parent="7NiApTt3flxIyvFXq6Fw-123" edge="1">
          <mxGeometry width="50" height="50" relative="1" as="geometry">
            <mxPoint x="32.222861192669846" y="52.10000000000001" as="sourcePoint" />
            <mxPoint x="248.4552191961122" y="52.10000000000001" as="targetPoint" />
          </mxGeometry>
        </mxCell>
        <mxCell id="7NiApTt3flxIyvFXq6Fw-27" value="" style="endArrow=none;html=1;rounded=0;entryX=0.5;entryY=1;entryDx=0;entryDy=0;" parent="7NiApTt3flxIyvFXq6Fw-123" target="7NiApTt3flxIyvFXq6Fw-11" edge="1">
          <mxGeometry width="50" height="50" relative="1" as="geometry">
            <mxPoint x="135.67520502176774" y="125.04000000000002" as="sourcePoint" />
            <mxPoint x="152.63460564948875" y="104.19999999999999" as="targetPoint" />
          </mxGeometry>
        </mxCell>
        <mxCell id="7NiApTt3flxIyvFXq6Fw-28" value="" style="endArrow=none;html=1;rounded=0;entryX=0.571;entryY=0.994;entryDx=0;entryDy=0;entryPerimeter=0;" parent="7NiApTt3flxIyvFXq6Fw-123" target="7NiApTt3flxIyvFXq6Fw-10" edge="1">
          <mxGeometry width="50" height="50" relative="1" as="geometry">
            <mxPoint x="135.67520502176774" y="125.04000000000002" as="sourcePoint" />
            <mxPoint x="84.79700313860485" y="83.36000000000001" as="targetPoint" />
          </mxGeometry>
        </mxCell>
        <mxCell id="7NiApTt3flxIyvFXq6Fw-29" value="" style="endArrow=none;html=1;rounded=0;entryX=0;entryY=0.5;entryDx=0;entryDy=0;" parent="7NiApTt3flxIyvFXq6Fw-123" target="7NiApTt3flxIyvFXq6Fw-111" edge="1">
          <mxGeometry width="50" height="50" relative="1" as="geometry">
            <mxPoint x="169.5940062772097" y="140.25319999999996" as="sourcePoint" />
            <mxPoint x="232.34378859977724" y="140.67" as="targetPoint" />
          </mxGeometry>
        </mxCell>
        <mxCell id="7NiApTt3flxIyvFXq6Fw-30" value="" style="endArrow=none;html=1;rounded=0;entryX=0.921;entryY=0.74;entryDx=0;entryDy=0;entryPerimeter=0;exitX=0;exitY=0.5;exitDx=0;exitDy=0;" parent="7NiApTt3flxIyvFXq6Fw-123" source="7NiApTt3flxIyvFXq6Fw-1" target="7NiApTt3flxIyvFXq6Fw-12" edge="1">
          <mxGeometry width="50" height="50" relative="1" as="geometry">
            <mxPoint x="125.41476764199656" y="156.3" as="sourcePoint" />
            <mxPoint x="76.23250582160576" y="125.04000000000002" as="targetPoint" />
          </mxGeometry>
        </mxCell>
        <mxCell id="7NiApTt3flxIyvFXq6Fw-31" value="" style="endArrow=none;html=1;rounded=0;entryX=1;entryY=0.5;entryDx=0;entryDy=0;exitX=0;exitY=0.5;exitDx=0;exitDy=0;" parent="7NiApTt3flxIyvFXq6Fw-123" source="7NiApTt3flxIyvFXq6Fw-1" target="7NiApTt3flxIyvFXq6Fw-13" edge="1">
          <mxGeometry width="50" height="50" relative="1" as="geometry">
            <mxPoint x="108.45536701427561" y="162.9688" as="sourcePoint" />
            <mxPoint x="84.71220613546625" y="139.0028" as="targetPoint" />
          </mxGeometry>
        </mxCell>
        <mxCell id="7NiApTt3flxIyvFXq6Fw-32" value="" style="endArrow=none;html=1;rounded=0;entryX=0.866;entryY=0.145;entryDx=0;entryDy=0;entryPerimeter=0;exitX=0;exitY=0.5;exitDx=0;exitDy=0;" parent="7NiApTt3flxIyvFXq6Fw-123" source="7NiApTt3flxIyvFXq6Fw-1" target="7NiApTt3flxIyvFXq6Fw-16" edge="1">
          <mxGeometry width="50" height="50" relative="1" as="geometry">
            <mxPoint x="100.90843373493978" y="140.67" as="sourcePoint" />
            <mxPoint x="77.92844588437784" y="185.86154000000002" as="targetPoint" />
          </mxGeometry>
        </mxCell>
        <mxCell id="7NiApTt3flxIyvFXq6Fw-89" value="" style="endArrow=none;html=1;rounded=0;exitX=0.5;exitY=0;exitDx=0;exitDy=0;" parent="7NiApTt3flxIyvFXq6Fw-123" source="7NiApTt3flxIyvFXq6Fw-112" edge="1">
          <mxGeometry width="50" height="50" relative="1" as="geometry">
            <mxPoint x="135.67520502176774" y="222.988" as="sourcePoint" />
            <mxPoint x="135.3614561101549" y="156.3" as="targetPoint" />
          </mxGeometry>
        </mxCell>
        <mxCell id="7NiApTt3flxIyvFXq6Fw-5" value="&lt;font face=&quot;Times New Roman&quot;&gt;roll_no&lt;/font&gt;" style="ellipse;whiteSpace=wrap;html=1;container=0;" parent="7NiApTt3flxIyvFXq6Fw-123" vertex="1">
          <mxGeometry x="180.55765920826164" y="85.9114726027397" width="68.98079173838211" height="24.717524657534245" as="geometry" />
        </mxCell>
        <mxCell id="7NiApTt3flxIyvFXq6Fw-107" value="" style="endArrow=none;html=1;rounded=0;exitX=0.5;exitY=0;exitDx=0;exitDy=0;entryX=0;entryY=0.5;entryDx=0;entryDy=0;" parent="7NiApTt3flxIyvFXq6Fw-123" source="7NiApTt3flxIyvFXq6Fw-1" target="7NiApTt3flxIyvFXq6Fw-5" edge="1">
          <mxGeometry width="50" height="50" relative="1" as="geometry">
            <mxPoint x="177.92955168573457" y="125.04000000000002" as="sourcePoint" />
            <mxPoint x="186.55340690493068" y="114.62000000000002" as="targetPoint" />
          </mxGeometry>
        </mxCell>
        <mxCell id="7NiApTt3flxIyvFXq6Fw-108" value="&lt;b&gt;1&lt;/b&gt;" style="text;html=1;align=center;verticalAlign=middle;resizable=0;points=[];autosize=1;strokeColor=none;fillColor=none;container=0;" parent="7NiApTt3flxIyvFXq6Fw-123" vertex="1">
          <mxGeometry x="168.32205123013063" y="135.46" width="30" height="30" as="geometry" />
        </mxCell>
        <mxCell id="7NiApTt3flxIyvFXq6Fw-112" value="&lt;font face=&quot;Times New Roman&quot;&gt;Generates&lt;/font&gt;" style="rhombus;whiteSpace=wrap;html=1;container=0;" parent="7NiApTt3flxIyvFXq6Fw-123" vertex="1">
          <mxGeometry x="101.75640376632583" y="229.24000000000004" width="67.83760251088387" height="62.52" as="geometry" />
        </mxCell>
        <mxCell id="7NiApTt3flxIyvFXq6Fw-115" value="&lt;b&gt;1&lt;/b&gt;" style="text;html=1;align=center;verticalAlign=middle;resizable=0;points=[];autosize=1;strokeColor=none;fillColor=none;container=0;" parent="7NiApTt3flxIyvFXq6Fw-123" vertex="1">
          <mxGeometry x="112.78001417434446" y="156.3" width="30" height="30" as="geometry" />
        </mxCell>
        <mxCell id="7NiApTt3flxIyvFXq6Fw-118" value="" style="endArrow=none;html=1;rounded=0;entryX=0.312;entryY=0.21;entryDx=0;entryDy=0;entryPerimeter=0;" parent="7NiApTt3flxIyvFXq6Fw-123" target="7NiApTt3flxIyvFXq6Fw-119" edge="1">
          <mxGeometry width="50" height="50" relative="1" as="geometry">
            <mxPoint x="135.67520502176774" y="156.92520000000002" as="sourcePoint" />
            <mxPoint x="245.91130910195406" y="250.07999999999998" as="targetPoint" />
          </mxGeometry>
        </mxCell>
        <mxCell id="7NiApTt3flxIyvFXq6Fw-119" value="&lt;font face=&quot;Times New Roman&quot;&gt;&lt;span style=&quot;font-size: 11px;&quot;&gt;Makes&lt;/span&gt;&lt;/font&gt;" style="rhombus;whiteSpace=wrap;html=1;container=0;" parent="7NiApTt3flxIyvFXq6Fw-123" vertex="1">
          <mxGeometry x="193.17728055077453" y="218.8155393835616" width="131.59352839931154" height="72.94196267123287" as="geometry" />
        </mxCell>
        <mxCell id="7NiApTt3flxIyvFXq6Fw-120" value="&lt;b&gt;1&lt;/b&gt;" style="text;html=1;align=center;verticalAlign=middle;resizable=0;points=[];autosize=1;strokeColor=none;fillColor=none;container=0;" parent="7NiApTt3flxIyvFXq6Fw-123" vertex="1">
          <mxGeometry x="144.15490533562823" y="166.72" width="30" height="30" as="geometry" />
        </mxCell>
        <mxCell id="gAiitMivv2aqCOJB7CVN-15" value="&lt;font face=&quot;Times New Roman&quot;&gt;location&lt;/font&gt;" style="ellipse;whiteSpace=wrap;html=1;container=0;" parent="7NiApTt3flxIyvFXq6Fw-123" vertex="1">
          <mxGeometry x="394.35670345246535" y="468.9" width="84.79700313860484" height="31.26" as="geometry" />
        </mxCell>
        <mxCell id="gAiitMivv2aqCOJB7CVN-16" value="&lt;font face=&quot;Times New Roman&quot;&gt;longitude&lt;/font&gt;" style="ellipse;whiteSpace=wrap;html=1;container=0;" parent="7NiApTt3flxIyvFXq6Fw-123" vertex="1">
          <mxGeometry x="441.99670345246534" y="530.16" width="84.79700313860484" height="31.26" as="geometry" />
        </mxCell>
        <mxCell id="gAiitMivv2aqCOJB7CVN-17" value="" style="endArrow=none;html=1;rounded=0;entryX=0.5;entryY=0;entryDx=0;entryDy=0;exitX=0.5;exitY=1;exitDx=0;exitDy=0;" parent="7NiApTt3flxIyvFXq6Fw-123" source="gAiitMivv2aqCOJB7CVN-15" target="gAiitMivv2aqCOJB7CVN-19" edge="1">
          <mxGeometry width="50" height="50" relative="1" as="geometry">
            <mxPoint x="347.0508338564341" y="448.06000000000006" as="sourcePoint" />
            <mxPoint x="347.0508338564341" y="427.2199999999999" as="targetPoint" />
          </mxGeometry>
        </mxCell>
        <mxCell id="gAiitMivv2aqCOJB7CVN-18" value="" style="endArrow=none;html=1;rounded=0;exitX=0.5;exitY=0;exitDx=0;exitDy=0;" parent="7NiApTt3flxIyvFXq6Fw-123" source="gAiitMivv2aqCOJB7CVN-16" edge="1">
          <mxGeometry width="50" height="50" relative="1" as="geometry">
            <mxPoint x="458.6" y="508.15999999999997" as="sourcePoint" />
            <mxPoint x="436" y="501.15999999999997" as="targetPoint" />
          </mxGeometry>
        </mxCell>
        <mxCell id="gAiitMivv2aqCOJB7CVN-19" value="&lt;font face=&quot;Times New Roman&quot;&gt;latitude&lt;/font&gt;" style="ellipse;whiteSpace=wrap;html=1;container=0;" parent="7NiApTt3flxIyvFXq6Fw-123" vertex="1">
          <mxGeometry x="351" y="530.16" width="84.79700313860484" height="31.26" as="geometry" />
        </mxCell>
        <mxCell id="tQuh6ZePSaEGx8QZspQ1-2" value="" style="endArrow=none;html=1;rounded=0;entryX=0.5;entryY=1;entryDx=0;entryDy=0;exitX=0.5;exitY=0;exitDx=0;exitDy=0;" edge="1" source="tQuh6ZePSaEGx8QZspQ1-3" parent="7NiApTt3flxIyvFXq6Fw-123" target="7NiApTt3flxIyvFXq6Fw-33">
          <mxGeometry width="50" height="50" relative="1" as="geometry">
            <mxPoint x="432.8813566872533" y="198.90000000000003" as="sourcePoint" />
            <mxPoint x="392" y="162.76" as="targetPoint" />
          </mxGeometry>
        </mxCell>
        <mxCell id="tQuh6ZePSaEGx8QZspQ1-3" value="&lt;font face=&quot;Times New Roman&quot;&gt;subject&lt;/font&gt;" style="ellipse;whiteSpace=wrap;html=1;container=0;" vertex="1" parent="7NiApTt3flxIyvFXq6Fw-123">
          <mxGeometry x="401.04712564543894" y="210.9989294520548" width="75.62065404475045" height="29.833673287671232" as="geometry" />
        </mxCell>
        <mxCell id="tQuh6ZePSaEGx8QZspQ1-5" value="" style="endArrow=none;html=1;rounded=0;exitX=0.241;exitY=0.067;exitDx=0;exitDy=0;exitPerimeter=0;" edge="1" source="tQuh6ZePSaEGx8QZspQ1-6" parent="7NiApTt3flxIyvFXq6Fw-123">
          <mxGeometry width="50" height="50" relative="1" as="geometry">
            <mxPoint x="494.20135668725334" y="195.37" as="sourcePoint" />
            <mxPoint x="431" y="157" as="targetPoint" />
          </mxGeometry>
        </mxCell>
        <mxCell id="tQuh6ZePSaEGx8QZspQ1-6" value="&lt;font face=&quot;Times New Roman&quot;&gt;created_at&lt;/font&gt;" style="ellipse;whiteSpace=wrap;html=1;container=0;" vertex="1" parent="7NiApTt3flxIyvFXq6Fw-123">
          <mxGeometry x="474.787125645439" y="195.36892945205483" width="75.62065404475045" height="29.833673287671232" as="geometry" />
        </mxCell>
        <mxCell id="tQuh6ZePSaEGx8QZspQ1-8" value="" style="endArrow=none;html=1;rounded=0;entryX=0.5;entryY=1;entryDx=0;entryDy=0;exitX=0.5;exitY=0;exitDx=0;exitDy=0;" edge="1" source="tQuh6ZePSaEGx8QZspQ1-9" parent="7NiApTt3flxIyvFXq6Fw-123" target="7NiApTt3flxIyvFXq6Fw-33">
          <mxGeometry width="50" height="50" relative="1" as="geometry">
            <mxPoint x="395.9313566872533" y="191.16000000000003" as="sourcePoint" />
            <mxPoint x="393.05" y="148.26" as="targetPoint" />
          </mxGeometry>
        </mxCell>
        <mxCell id="tQuh6ZePSaEGx8QZspQ1-9" value="&lt;font face=&quot;Times New Roman&quot;&gt;class_id&lt;/font&gt;" style="ellipse;whiteSpace=wrap;html=1;container=0;" vertex="1" parent="7NiApTt3flxIyvFXq6Fw-123">
          <mxGeometry x="341.65712564543895" y="185.91892945205478" width="75.62065404475045" height="29.833673287671232" as="geometry" />
        </mxCell>
        <mxCell id="tQuh6ZePSaEGx8QZspQ1-10" value="" style="endArrow=none;html=1;rounded=0;exitX=0.5;exitY=0;exitDx=0;exitDy=0;" edge="1" source="tQuh6ZePSaEGx8QZspQ1-11" parent="7NiApTt3flxIyvFXq6Fw-123">
          <mxGeometry width="50" height="50" relative="1" as="geometry">
            <mxPoint x="289.4620281461982" y="401.17" as="sourcePoint" />
            <mxPoint x="304" y="396" as="targetPoint" />
          </mxGeometry>
        </mxCell>
        <mxCell id="tQuh6ZePSaEGx8QZspQ1-11" value="&lt;font face=&quot;Times New Roman&quot;&gt;created_at&lt;/font&gt;" style="ellipse;whiteSpace=wrap;html=1;container=0;" vertex="1" parent="7NiApTt3flxIyvFXq6Fw-123">
          <mxGeometry x="264" y="406.38" width="80.65" height="31.26" as="geometry" />
        </mxCell>
        <mxCell id="7NiApTt3flxIyvFXq6Fw-4" value="&lt;font face=&quot;Times New Roman&quot;&gt;&lt;b&gt;OTP&lt;/b&gt;&lt;/font&gt;" style="rounded=0;whiteSpace=wrap;html=1;container=0;" parent="7NiApTt3flxIyvFXq6Fw-123" vertex="1">
          <mxGeometry x="103.25640376632582" y="345.52" width="67.83760251088387" height="31.26" as="geometry" />
        </mxCell>
        <mxCell id="7NiApTt3flxIyvFXq6Fw-55" value="&lt;font face=&quot;Times New Roman&quot;&gt;created_at&lt;/font&gt;" style="ellipse;whiteSpace=wrap;html=1;container=0;" parent="7NiApTt3flxIyvFXq6Fw-123" vertex="1">
          <mxGeometry x="1.5" y="293.4199999999999" width="84.79700313860484" height="31.26" as="geometry" />
        </mxCell>
        <mxCell id="7NiApTt3flxIyvFXq6Fw-56" value="&lt;font face=&quot;Times New Roman&quot;&gt;expiry&lt;/font&gt;" style="ellipse;whiteSpace=wrap;html=1;container=0;" parent="7NiApTt3flxIyvFXq6Fw-123" vertex="1">
          <mxGeometry x="1.5" y="335.1" width="84.79700313860484" height="31.26" as="geometry" />
        </mxCell>
        <mxCell id="7NiApTt3flxIyvFXq6Fw-57" value="&lt;font face=&quot;Times New Roman&quot;&gt;otp_code&lt;/font&gt;" style="ellipse;whiteSpace=wrap;html=1;container=0;" parent="7NiApTt3flxIyvFXq6Fw-123" vertex="1">
          <mxGeometry x="1.5" y="376.78" width="84.79700313860484" height="31.26" as="geometry" />
        </mxCell>
        <mxCell id="7NiApTt3flxIyvFXq6Fw-58" value="" style="endArrow=none;html=1;rounded=0;entryX=0.928;entryY=0.78;entryDx=0;entryDy=0;entryPerimeter=0;exitX=0;exitY=0.5;exitDx=0;exitDy=0;" parent="7NiApTt3flxIyvFXq6Fw-123" source="7NiApTt3flxIyvFXq6Fw-4" target="7NiApTt3flxIyvFXq6Fw-55" edge="1">
          <mxGeometry width="50" height="50" relative="1" as="geometry">
            <mxPoint x="103.25640376632582" y="340.30999999999995" as="sourcePoint" />
            <mxPoint x="77.73250582160576" y="324.68" as="targetPoint" />
          </mxGeometry>
        </mxCell>
        <mxCell id="7NiApTt3flxIyvFXq6Fw-59" value="" style="endArrow=none;html=1;rounded=0;entryX=1;entryY=0.5;entryDx=0;entryDy=0;exitX=0;exitY=0.5;exitDx=0;exitDy=0;" parent="7NiApTt3flxIyvFXq6Fw-123" source="7NiApTt3flxIyvFXq6Fw-4" target="7NiApTt3flxIyvFXq6Fw-56" edge="1">
          <mxGeometry width="50" height="50" relative="1" as="geometry">
            <mxPoint x="103.25640376632582" y="340.30999999999995" as="sourcePoint" />
            <mxPoint x="86.21220613546625" y="338.64279999999997" as="targetPoint" />
          </mxGeometry>
        </mxCell>
        <mxCell id="7NiApTt3flxIyvFXq6Fw-60" value="" style="endArrow=none;html=1;rounded=0;entryX=0.866;entryY=0.145;entryDx=0;entryDy=0;entryPerimeter=0;exitX=0;exitY=0.5;exitDx=0;exitDy=0;" parent="7NiApTt3flxIyvFXq6Fw-123" source="7NiApTt3flxIyvFXq6Fw-4" target="7NiApTt3flxIyvFXq6Fw-57" edge="1">
          <mxGeometry width="50" height="50" relative="1" as="geometry">
            <mxPoint x="103.25640376632582" y="340.30999999999995" as="sourcePoint" />
            <mxPoint x="79.42844588437784" y="385.50154" as="targetPoint" />
          </mxGeometry>
        </mxCell>
        <mxCell id="7NiApTt3flxIyvFXq6Fw-63" value="&lt;font face=&quot;Times New Roman&quot;&gt;radius&lt;/font&gt;" style="ellipse;whiteSpace=wrap;html=1;container=0;" parent="7NiApTt3flxIyvFXq6Fw-123" vertex="1">
          <mxGeometry x="188.05340690493065" y="470.55999999999995" width="84.79700313860484" height="31.26" as="geometry" />
        </mxCell>
        <mxCell id="7NiApTt3flxIyvFXq6Fw-64" value="" style="endArrow=none;html=1;rounded=0;" parent="7NiApTt3flxIyvFXq6Fw-123" edge="1">
          <mxGeometry width="50" height="50" relative="1" as="geometry">
            <mxPoint x="40.5" y="449.82" as="sourcePoint" />
            <mxPoint x="230.45190847423308" y="449.72" as="targetPoint" />
          </mxGeometry>
        </mxCell>
        <mxCell id="7NiApTt3flxIyvFXq6Fw-66" value="" style="endArrow=none;html=1;rounded=0;" parent="7NiApTt3flxIyvFXq6Fw-123" edge="1">
          <mxGeometry width="50" height="50" relative="1" as="geometry">
            <mxPoint x="230.45190847423308" y="449.72" as="sourcePoint" />
            <mxPoint x="230.45190847423308" y="470.55999999999995" as="targetPoint" />
          </mxGeometry>
        </mxCell>
        <mxCell id="7NiApTt3flxIyvFXq6Fw-67" value="&lt;font face=&quot;Times New Roman&quot;&gt;&lt;u&gt;oid&lt;/u&gt;&lt;/font&gt;" style="ellipse;whiteSpace=wrap;html=1;container=0;" parent="7NiApTt3flxIyvFXq6Fw-123" vertex="1">
          <mxGeometry x="62.656626506024104" y="408.0396431506849" width="61.79731497418245" height="28.191452739726024" as="geometry" />
        </mxCell>
        <mxCell id="7NiApTt3flxIyvFXq6Fw-68" value="&lt;font face=&quot;Times New Roman&quot;&gt;teacher_id&lt;/font&gt;" style="ellipse;whiteSpace=wrap;html=1;container=0;" parent="7NiApTt3flxIyvFXq6Fw-123" vertex="1">
          <mxGeometry x="149.89475549255846" y="408.03999999999996" width="84.79700313860484" height="31.26" as="geometry" />
        </mxCell>
        <mxCell id="7NiApTt3flxIyvFXq6Fw-69" value="" style="endArrow=none;html=1;rounded=0;exitX=0.538;exitY=-0.002;exitDx=0;exitDy=0;exitPerimeter=0;" parent="7NiApTt3flxIyvFXq6Fw-123" source="gAiitMivv2aqCOJB7CVN-12" edge="1">
          <mxGeometry width="50" height="50" relative="1" as="geometry">
            <mxPoint x="136.81905760858558" y="449.72" as="sourcePoint" />
            <mxPoint x="137.17520502176774" y="376.78" as="targetPoint" />
          </mxGeometry>
        </mxCell>
        <mxCell id="7NiApTt3flxIyvFXq6Fw-71" value="" style="endArrow=none;html=1;rounded=0;entryX=0.655;entryY=0.028;entryDx=0;entryDy=0;entryPerimeter=0;exitX=0.5;exitY=1;exitDx=0;exitDy=0;" parent="7NiApTt3flxIyvFXq6Fw-123" source="7NiApTt3flxIyvFXq6Fw-4" target="7NiApTt3flxIyvFXq6Fw-67" edge="1">
          <mxGeometry width="50" height="50" relative="1" as="geometry">
            <mxPoint x="124.455654550977" y="388.24199999999996" as="sourcePoint" />
            <mxPoint x="96.47264351523741" y="408.03999999999996" as="targetPoint" />
          </mxGeometry>
        </mxCell>
        <mxCell id="7NiApTt3flxIyvFXq6Fw-72" value="" style="endArrow=none;html=1;rounded=0;exitX=0.327;exitY=0.039;exitDx=0;exitDy=0;exitPerimeter=0;" parent="7NiApTt3flxIyvFXq6Fw-123" source="7NiApTt3flxIyvFXq6Fw-68" edge="1">
          <mxGeometry width="50" height="50" relative="1" as="geometry">
            <mxPoint x="191.86927204616785" y="366.35999999999996" as="sourcePoint" />
            <mxPoint x="137.17520502176774" y="376.78" as="targetPoint" />
          </mxGeometry>
        </mxCell>
        <mxCell id="7NiApTt3flxIyvFXq6Fw-116" value="&lt;b&gt;N&lt;/b&gt;" style="text;html=1;align=center;verticalAlign=middle;resizable=0;points=[];autosize=1;strokeColor=none;fillColor=none;container=0;" parent="7NiApTt3flxIyvFXq6Fw-123" vertex="1">
          <mxGeometry x="114.2761040801863" y="324.68" width="27" height="26" as="geometry" />
        </mxCell>
        <mxCell id="gAiitMivv2aqCOJB7CVN-12" value="&lt;font face=&quot;Times New Roman&quot;&gt;location&lt;/font&gt;" style="ellipse;whiteSpace=wrap;html=1;container=0;" parent="7NiApTt3flxIyvFXq6Fw-123" vertex="1">
          <mxGeometry x="90.85670345246533" y="470.56" width="84.79700313860484" height="31.26" as="geometry" />
        </mxCell>
        <mxCell id="gAiitMivv2aqCOJB7CVN-20" value="" style="endArrow=none;html=1;rounded=0;" parent="7NiApTt3flxIyvFXq6Fw-123" edge="1">
          <mxGeometry width="50" height="50" relative="1" as="geometry">
            <mxPoint x="40.90190847423304" y="449.7200000000001" as="sourcePoint" />
            <mxPoint x="40.90190847423304" y="470.56" as="targetPoint" />
          </mxGeometry>
        </mxCell>
        <mxCell id="gAiitMivv2aqCOJB7CVN-21" value="&lt;font face=&quot;Times New Roman&quot;&gt;duration&lt;/font&gt;" style="ellipse;whiteSpace=wrap;html=1;container=0;" parent="7NiApTt3flxIyvFXq6Fw-123" vertex="1">
          <mxGeometry x="-1.4965930950693833" y="470.56" width="84.79700313860484" height="31.26" as="geometry" />
        </mxCell>
        <mxCell id="7NiApTt3flxIyvFXq6Fw-61" value="&lt;font face=&quot;Times New Roman&quot;&gt;longitude&lt;/font&gt;" style="ellipse;whiteSpace=wrap;html=1;container=0;" parent="7NiApTt3flxIyvFXq6Fw-123" vertex="1">
          <mxGeometry x="136.4967034524653" y="542.24" width="84.79700313860484" height="31.26" as="geometry" />
        </mxCell>
        <mxCell id="7NiApTt3flxIyvFXq6Fw-62" value="&lt;font face=&quot;Times New Roman&quot;&gt;latitude&lt;/font&gt;" style="ellipse;whiteSpace=wrap;html=1;container=0;" parent="7NiApTt3flxIyvFXq6Fw-123" vertex="1">
          <mxGeometry x="45.5" y="542.24" width="84.79700313860484" height="31.26" as="geometry" />
        </mxCell>
        <mxCell id="7NiApTt3flxIyvFXq6Fw-65" value="" style="endArrow=none;html=1;rounded=0;entryX=0.5;entryY=0;entryDx=0;entryDy=0;exitX=0.5;exitY=1;exitDx=0;exitDy=0;" parent="7NiApTt3flxIyvFXq6Fw-123" source="gAiitMivv2aqCOJB7CVN-12" target="7NiApTt3flxIyvFXq6Fw-62" edge="1">
          <mxGeometry width="50" height="50" relative="1" as="geometry">
            <mxPoint x="41.55083385643414" y="460.14000000000016" as="sourcePoint" />
            <mxPoint x="41.55083385643414" y="439.29999999999995" as="targetPoint" />
          </mxGeometry>
        </mxCell>
        <mxCell id="gAiitMivv2aqCOJB7CVN-13" value="" style="endArrow=none;html=1;rounded=0;exitX=0.5;exitY=0;exitDx=0;exitDy=0;entryX=0.5;entryY=1;entryDx=0;entryDy=0;" parent="7NiApTt3flxIyvFXq6Fw-123" source="7NiApTt3flxIyvFXq6Fw-61" edge="1" target="gAiitMivv2aqCOJB7CVN-12">
          <mxGeometry width="50" height="50" relative="1" as="geometry">
            <mxPoint x="153.1" y="520.24" as="sourcePoint" />
            <mxPoint x="130.5" y="513.24" as="targetPoint" />
          </mxGeometry>
        </mxCell>
      </root>
    </mxGraphModel>
  </diagram>
</mxfile>
